<?xml version="1.0" encoding="UTF-8"?>
<svg width="100px" height="100px" viewBox="0 0 100 100" version="1.1" xmlns="http://www.w3.org/2000/svg" xmlns:xlink="http://www.w3.org/1999/xlink">
    <title>TheGlobalGoals_Icons_Color_Goal_8</title>
    <g id="Startup---Create-/-edit-startup-profile" stroke="none" stroke-width="1" fill="none" fill-rule="evenodd">
        <g id="SDGs" transform="translate(-839.000000, -38.000000)" fill-rule="nonzero">
            <g id="TheGlobalGoals_Icons_Color_Goal_8" transform="translate(839.000000, 38.000000)">
                <rect id="_Path_" fill="#A21942" x="0" y="0.0978043912" width="100" height="99.8033932"></rect>
                <path d="M19.43,23.6616766 L19.43,21.4660679 C19.43,19.5379242 18.747,18.1427146 17.17,17.4301397 C18.507,16.7784431 19.133,15.5908184 19.133,13.9291417 L19.133,13.0968064 C19.133,9.9510978 17.498,8.25948104 14.375,8.25948104 C11.283,8.25948104 9.675,9.95608782 9.675,13.0968064 L9.675,13.9291417 C9.675,15.5618762 10.275,16.7784431 11.575,17.4301397 C9.999,18.1427146 9.344,19.5379242 9.344,21.4660679 L9.344,23.6616766 C9.344,26.7175649 10.802,28.8512974 14.371,28.8512974 C17.971,28.8512974 19.426,26.7135729 19.426,23.6616766 M12.853,12.8832335 C12.853,11.6646707 13.271,10.9530938 14.371,10.9530938 C15.5,10.9530938 15.917,11.6646707 15.917,12.8832335 L15.917,14.247505 C15.917,15.4640719 15.5,16.1786427 14.371,16.1786427 C13.271,16.1786427 12.853,15.4640719 12.853,14.247505 L12.853,12.8832335 Z M16.04,24.0169661 C16.04,25.2345309 15.594,26.0948104 14.375,26.0948104 C13.185,26.0948104 12.739,25.2345309 12.739,24.0169661 L12.739,20.752495 C12.739,19.5359281 13.185,18.6746507 14.375,18.6746507 C15.594,18.6746507 16.04,19.5359281 16.04,20.752495 L16.04,24.0169661 Z" id="_Compound_Path_" fill="#FFFFFF"></path>
                <g id="Group" transform="translate(25.900000, 37.125749)" fill="#FFFFFF">
                    <path d="M43.516,12.0758483 L33.352,21.7235529 C32.969,22.1037924 32.772,22.3842315 32.772,23.1726547 L32.772,50.2185629 C32.7731019,50.5374689 33.0324543,50.7954092 33.352,50.7954092 L43.852,50.7954092 C44.1713828,50.7954092 44.4304484,50.5373077 44.431,50.2185629 L44.431,12.3173653 C44.431,11.998004 44.181,11.4191617 43.517,12.0738523" id="_Path_2"></path>
                    <path d="M14.234,24.6506986 L4.069,34.2944112 C3.687,34.6756487 3.489,34.9550898 3.489,35.742515 L3.489,50.2135729 C3.49065081,50.5320888 3.74984277,50.7894212 4.069,50.7894212 L14.569,50.7894212 C14.8879934,50.7894212 15.1468981,50.5319277 15.148,50.2135729 L15.148,24.8882236 C15.148,24.5678643 14.895,23.9840319 14.234,24.6457086" id="_Path_3"></path>
                    <path d="M48.1364498,0.371257485 C48.1406366,0.289080104 48.1092503,0.208949868 48.05,0.151696607 C47.9987752,0.103281648 47.932361,0.0740190072 47.862,0.0688622754 L47.806,0.0688622754 L47.723,0.0688622754 L39.94,1.82934132 L39.799,1.84431138 C39.7419907,1.8560245 39.6893654,1.88332118 39.647,1.92315369 C39.5333091,2.0394512 39.5333091,2.22501985 39.647,2.34131737 L39.735,2.42914172 L41.513,4.20259481 L23.877,21.8033932 L15.732,13.6726547 C15.6883428,13.6280293 15.6284928,13.6028683 15.566,13.6028683 C15.5035072,13.6028683 15.4436572,13.6280293 15.4,13.6726547 L13.19,15.8792415 L0.131,28.9111776 C0.0410693931,29.0033899 0.0410693931,29.1503027 0.131,29.242515 L2.344,31.4500998 C2.3875446,31.4937975 2.44674831,31.518367 2.5085,31.518367 C2.57025169,31.518367 2.6294554,31.4937975 2.673,31.4500998 L15.573,18.5838323 L21.483,24.4840319 C21.4886403,24.4937977 21.4949907,24.5031374 21.502,24.511976 L23.713,26.7155689 C23.7564842,26.7601365 23.8161695,26.785275 23.8785,26.785275 C23.9408305,26.785275 24.0005158,26.7601365 24.044,26.7155689 L44.055,6.74051896 L45.921,8.60179641 C45.9757077,8.6573258 46.0504693,8.68860135 46.1285,8.68860135 C46.2065307,8.68860135 46.2812923,8.6573258 46.336,8.60179641 C46.3881662,8.55134617 46.4186449,8.48263762 46.421,8.41017964 L46.421,8.38622754 L48.13,0.457085828 L48.1364498,0.371257485 Z" id="_Path_4"></path>
                    <path d="M28.933,26.3393214 L24.015,31.2874251 C23.922165,31.3659491 23.784621,31.3607528 23.698,31.2754491 L19.243,26.746507 C18.427,25.9361277 18.2509991,26.5938124 18.2509991,26.9121756 L18.2509991,50.2165669 C18.2507346,50.3692914 18.311271,50.515866 18.419292,50.6240457 C18.527313,50.7322254 18.67397,50.7931487 18.827,50.7934132 L29.327,50.7934132 C29.6456017,50.7923153 29.9034516,50.5345341 29.904,50.2165669 L29.904,26.5219561 C29.904,26.2035928 29.653,25.6177645 28.931,26.3393214" id="_Path_5"></path>
                </g>
                <g id="_Group_2" transform="translate(26.800000, 8.283433)" fill="#FFFFFF">
                    <path d="M4.18,2.35628743 L4.18,6.13373253 C4.18,7.38522954 3.661,8.32335329 2.191,8.32335329 L0.069,8.32335329 L0.069,0.166666667 L2.191,0.166666667 C3.661,0.166666667 4.18,1.09780439 4.18,2.35628743 Z M2.022,7.20459082 C2.589,7.20459082 2.806,6.86826347 2.806,6.3742515 L2.806,2.10379242 C2.806,1.62175649 2.589,1.28542914 2.022,1.28542914 L1.443,1.28542914 L1.443,7.20459082 L2.022,7.20459082 Z" id="_Compound_Path_2"></path>
                    <polygon id="_Compound_Path_3" points="5.048 0.166666667 8.327 0.166666667 8.327 1.28542914 6.427 1.28542914 6.427 3.61976048 7.789 3.61976048 7.789 4.72654691 6.422 4.72654691 6.422 7.20459082 8.322 7.20459082 8.322 8.32335329 5.048 8.32335329"></polygon>
                    <path d="M9.026,6.21856287 L9.026,2.27145709 C9.026,0.996007984 9.626,0.0698602794 11.075,0.0698602794 C12.594,0.0698602794 13.016,0.912175649 13.016,2.11576846 L13.016,3.07784431 L11.763,3.07784431 L11.763,2.00698603 C11.763,1.50199601 11.594,1.20858283 11.1,1.20858283 C10.606,1.20858283 10.4,1.55788423 10.4,2.0508982 L10.4,6.43113772 C10.4,6.9241517 10.605,7.27345309 11.1,7.27345309 C11.595,7.27345309 11.763,6.96007984 11.763,6.4750499 L11.763,4.97904192 L13.016,4.97904192 L13.016,6.38722555 C13.016,7.55489022 12.534,8.42115768 11.075,8.42115768 C9.616,8.42115768 9.026,7.48502994 9.026,6.21856287 Z" id="_Compound_Path_4"></path>
                    <polygon id="_Compound_Path_5" points="13.848 0.166666667 17.127 0.166666667 17.127 1.28542914 15.227 1.28542914 15.227 3.61976048 16.59 3.61976048 16.59 4.72654691 15.222 4.72654691 15.222 7.20459082 17.122 7.20459082 17.122 8.32335329 13.848 8.32335329"></polygon>
                    <polygon id="_Compound_Path_6" points="19.1 3.19860279 19.1 8.32335329 17.947 8.32335329 17.947 0.166666667 19.3 0.166666667 20.783 4.84630739 20.783 0.166666667 21.928 0.166666667 21.928 8.32335329 20.72 8.32335329"></polygon>
                    <polygon id="_Compound_Path_7" points="22.636 0.166666667 26.289 0.166666667 26.289 1.28542914 25.156 1.28542914 25.156 8.32335329 23.769 8.32335329 23.769 1.28542914 22.636 1.28542914"></polygon>
                    <polygon id="_Compound_Path_8" points="31.328 3.28243513 30.557 8.32335329 29.267 8.32335329 28.167 0.166666667 29.5 0.166666667 30.139 5.34031936 30.151 5.34031936 30.838 0.166666667 31.959 0.166666667 32.718 5.34031936 32.73 5.34031936 33.357 0.166666667 34.515 0.166666667 33.45 8.32335329 32.15 8.32335329 31.342 3.28243513"></polygon>
                    <path d="M35.065,6.21856287 L35.065,2.27145709 C35.065,0.996007984 35.692,0.0698602794 37.139,0.0698602794 C38.586,0.0698602794 39.224,0.996007984 39.224,2.27145709 L39.224,6.21856287 C39.224,7.48203593 38.597,8.42015968 37.139,8.42015968 C35.681,8.42015968 35.065,7.48502994 35.065,6.21856287 Z M37.85,6.43512974 L37.85,2.05489022 C37.85,1.56187625 37.633,1.21257485 37.139,1.21257485 C36.645,1.21257485 36.439,1.56187625 36.439,2.05489022 L36.439,6.43512974 C36.439,6.92814371 36.656,7.27744511 37.139,7.27744511 C37.622,7.27744511 37.85,6.92814371 37.85,6.43512974 Z" id="_Compound_Path_9"></path>
                    <path d="M41.466,4.58183633 L41.466,8.32335329 L40.092,8.32335329 L40.092,0.166666667 L42.092,0.166666667 C43.479,0.166666667 43.985,0.852295409 43.985,1.99500998 L43.985,3.04191617 C43.985,3.92015968 43.672,4.43912176 42.885,4.61776447 L44.2,8.32335329 L42.756,8.32335329 L41.466,4.58183633 Z M41.466,1.28842315 L41.466,3.82734531 L41.924,3.82734531 C42.395,3.82734531 42.6,3.58582834 42.6,3.15269461 L42.6,1.95508982 C42.6,1.50998004 42.4,1.29341317 41.924,1.29341317 L41.466,1.28842315 Z" id="_Compound_Path_10"></path>
                    <polygon id="_Compound_Path_11" points="46.192 4.35329341 46.192 8.32335329 44.818 8.32335329 44.818 0.166666667 46.192 0.166666667 46.192 3.75149701 47.692 0.166666667 49.042 0.166666667 47.451 3.83632735 49.078 8.32734531 47.627 8.32734531"></polygon>
                    <path d="M50.99,8.32335329 L52.533,0.166666667 L54.1,0.166666667 L55.656,8.32335329 L54.245,8.32335329 L53.992,6.83233533 L52.533,6.83233533 L52.292,8.32335329 L50.99,8.32335329 Z M52.714,5.73652695 L53.814,5.73652695 L53.272,2.46407186 L53.259,2.46407186 L52.714,5.73652695 Z" id="_Compound_Path_12"></path>
                    <polygon id="_Compound_Path_13" points="57.271 3.19860279 57.271 8.32335329 56.113 8.32335329 56.113 0.166666667 57.464 0.166666667 58.947 4.84630739 58.947 0.166666667 60.092 0.166666667 60.092 8.32335329 58.886 8.32335329"></polygon>
                    <path d="M65.107,2.35628743 L65.107,6.13373253 C65.107,7.38522954 64.588,8.32335329 63.117,8.32335329 L61,8.32335329 L61,0.166666667 L63.121,0.166666667 C64.588,0.166666667 65.107,1.09780439 65.107,2.35628743 Z M62.949,7.20459082 C63.515,7.20459082 63.732,6.86826347 63.732,6.3742515 L63.732,2.10379242 C63.732,1.62175649 63.515,1.28542914 62.949,1.28542914 L62.37,1.28542914 L62.37,7.20459082 L62.949,7.20459082 Z" id="_Compound_Path_14"></path>
                </g>
                <g id="_Group_3" transform="translate(26.800000, 20.259481)" fill="#FFFFFF">
                    <polygon id="_Compound_Path_15" points="0.069 0.170658683 3.348 0.170658683 3.348 1.28942116 1.443 1.28942116 1.443 3.6237525 2.806 3.6237525 2.806 4.73053892 1.443 4.73053892 1.443 7.20958084 3.348 7.20958084 3.348 8.32834331 0.069 8.32834331"></polygon>
                    <path d="M3.951,6.22255489 L3.951,2.27644711 C3.951,1.000998 4.551,0.0748502994 6,0.0748502994 C7.519,0.0748502994 7.941,0.916167665 7.941,2.11976048 L7.941,3.08283433 L6.687,3.08283433 L6.687,2.01197605 C6.687,1.50598802 6.519,1.21357285 6.024,1.21357285 C5.529,1.21357285 5.324,1.56187625 5.324,2.05588822 L5.324,6.43512974 C5.324,6.92814371 5.529,7.27744511 6.024,7.27744511 C6.519,7.27744511 6.687,6.96506986 6.687,6.47904192 L6.687,4.98303393 L7.941,4.98303393 L7.941,6.38722555 C7.941,7.55389222 7.459,8.42015968 6,8.42015968 C4.541,8.42015968 3.951,7.48502994 3.951,6.22255489 Z" id="_Compound_Path_16"></path>
                    <path d="M8.688,6.22255489 L8.688,2.27644711 C8.688,1.000998 9.315,0.0748502994 10.762,0.0748502994 C12.209,0.0748502994 12.848,1.000998 12.848,2.27644711 L12.848,6.22255489 C12.848,7.48602794 12.221,8.4241517 10.762,8.4241517 C9.303,8.4241517 8.688,7.48502994 8.688,6.22255489 Z M11.473,6.43912176 L11.473,2.05988024 C11.473,1.56586826 11.256,1.21756487 10.762,1.21756487 C10.268,1.21756487 10.062,1.56586826 10.062,2.05988024 L10.062,6.43912176 C10.062,6.93213573 10.279,7.28143713 10.762,7.28143713 C11.245,7.28143713 11.473,6.93213573 11.473,6.43912176 L11.473,6.43912176 Z" id="_Compound_Path_17"></path>
                    <polygon id="_Compound_Path_18" points="14.788 3.20259481 14.788 8.32834331 13.631 8.32834331 13.631 0.170658683 14.981 0.170658683 16.464 4.85129741 16.464 0.170658683 17.609 0.170658683 17.609 8.32834331 16.4 8.32834331"></polygon>
                    <path d="M18.393,6.22255489 L18.393,2.27644711 C18.393,1.000998 19.02,0.0748502994 20.466,0.0748502994 C21.912,0.0748502994 22.552,1.000998 22.552,2.27644711 L22.552,6.22255489 C22.552,7.48602794 21.925,8.4241517 20.466,8.4241517 C19.007,8.4241517 18.393,7.48502994 18.393,6.22255489 Z M21.178,6.43912176 L21.178,2.05988024 C21.178,1.56586826 20.961,1.21756487 20.466,1.21756487 C19.971,1.21756487 19.766,1.56586826 19.766,2.05988024 L19.766,6.43912176 C19.766,6.93213573 19.983,7.28143713 20.466,7.28143713 C20.949,7.28143713 21.178,6.93213573 21.178,6.43912176 L21.178,6.43912176 Z" id="_Compound_Path_19"></path>
                    <polygon id="_Compound_Path_20" points="27.121 3.03393214 27.085 3.03393214 26.156 8.32335329 25.517 8.32335329 24.493 3.03393214 24.468 3.03393214 24.468 8.32335329 23.335 8.32335329 23.335 0.170658683 24.935 0.170658683 25.827 4.76147705 25.839 4.76147705 26.639 0.170658683 28.376 0.170658683 28.376 8.32834331 27.121 8.32834331"></polygon>
                    <polygon id="_Compound_Path_21" points="29.158 0.170658683 30.532 0.170658683 30.532 8.32834331 29.158 8.32834331"></polygon>
                    <path d="M31.3,6.22255489 L31.3,2.27644711 C31.3,1.000998 31.9,0.0748502994 33.349,0.0748502994 C34.868,0.0748502994 35.29,0.916167665 35.29,2.11976048 L35.29,3.08283433 L34.04,3.08283433 L34.04,2.01197605 C34.04,1.50598802 33.871,1.21357285 33.377,1.21357285 C32.883,1.21357285 32.677,1.56187625 32.677,2.05588822 L32.677,6.43512974 C32.677,6.92814371 32.882,7.27744511 33.377,7.27744511 C33.872,7.27744511 34.04,6.96506986 34.04,6.47904192 L34.04,4.98303393 L35.294,4.98303393 L35.294,6.38722555 C35.294,7.55389222 34.812,8.42015968 33.353,8.42015968 C31.894,8.42015968 31.3,7.48502994 31.3,6.22255489 Z" id="_Compound_Path_22"></path>
                    <path d="M39.706,3.97305389 L41.659,3.97305389 L41.659,8.32834331 L40.671,8.32834331 L40.671,7.43812375 C40.49,8.05189621 40.104,8.4241517 39.357,8.4241517 C38.175,8.4241517 37.633,7.48602794 37.633,6.22255489 L37.633,2.27644711 C37.633,1.000998 38.247,0.0748502994 39.694,0.0748502994 C41.213,0.0748502994 41.659,0.916167665 41.659,2.11976048 L41.659,2.84131737 L40.405,2.84131737 L40.405,2.01197605 C40.405,1.50598802 40.212,1.21357285 39.718,1.21357285 C39.224,1.21357285 39.007,1.56187625 39.007,2.05588822 L39.007,6.43512974 C39.007,6.92814371 39.207,7.27744511 39.682,7.27744511 C40.128,7.27744511 40.357,7.0249501 40.357,6.49500998 L40.357,5.05588822 L39.706,5.05588822 L39.706,3.97305389 Z" id="_Compound_Path_23"></path>
                    <path d="M43.817,4.59081836 L43.817,8.33233533 L42.442,8.33233533 L42.442,0.170658683 L44.442,0.170658683 C45.828,0.170658683 46.335,0.856287425 46.335,1.999002 L46.335,3.04590818 C46.335,3.9241517 46.021,4.44311377 45.235,4.62275449 L46.55,8.32834331 L45.107,8.32834331 L43.817,4.59081836 Z M43.817,1.29740519 L43.817,3.83632735 L44.275,3.83632735 C44.745,3.83632735 44.95,3.59580838 44.95,3.16267465 L44.95,1.9510978 C44.95,1.50598802 44.75,1.28942116 44.275,1.28942116 L43.817,1.29740519 Z" id="_Compound_Path_24"></path>
                    <path d="M46.963,6.22255489 L46.963,2.27644711 C46.963,1.000998 47.59,0.0748502994 49.037,0.0748502994 C50.484,0.0748502994 51.122,1.000998 51.122,2.27644711 L51.122,6.22255489 C51.122,7.48602794 50.496,8.4241517 49.037,8.4241517 C47.578,8.4241517 46.963,7.48502994 46.963,6.22255489 Z M49.748,6.43912176 L49.748,2.05988024 C49.748,1.56586826 49.531,1.21756487 49.037,1.21756487 C48.543,1.21756487 48.337,1.56586826 48.337,2.05988024 L48.337,6.43912176 C48.337,6.93213573 48.554,7.28143713 49.037,7.28143713 C49.52,7.28143713 49.748,6.93213573 49.748,6.43912176 L49.748,6.43912176 Z" id="_Compound_Path_25"></path>
                    <polygon id="_Compound_Path_26" points="54.642 3.28642715 53.871 8.32834331 52.581 8.32834331 51.481 0.170658683 52.81 0.170658683 53.449 5.34431138 53.461 5.34431138 54.148 0.170658683 55.269 0.170658683 56.029 5.34431138 56.041 5.34431138 56.668 0.170658683 57.825 0.170658683 56.764 8.32834331 55.464 8.32834331 54.656 3.28642715"></polygon>
                    <polygon id="_Compound_Path_27" points="58.247 0.170658683 61.9 0.170658683 61.9 1.28942116 60.767 1.28942116 60.767 8.32834331 59.38 8.32834331 59.38 1.28942116 58.247 1.28942116"></polygon>
                    <polygon id="_Compound_Path_28" points="65.022 4.73053892 63.7 4.73053892 63.7 8.32335329 62.321 8.32335329 62.321 0.170658683 63.7 0.170658683 63.7 3.6237525 65.026 3.6237525 65.026 0.170658683 66.412 0.170658683 66.412 8.32834331 65.022 8.32834331"></polygon>
                </g>
            </g>
        </g>
    </g>
</svg>