<?xml version="1.0" encoding="UTF-8"?>
<svg width="100px" height="100px" viewBox="0 0 100 100" version="1.1" xmlns="http://www.w3.org/2000/svg" xmlns:xlink="http://www.w3.org/1999/xlink">
    <title>TheGlobalGoals_Icons_Color_Goal_9</title>
    <g id="Startup---Create-/-edit-startup-profile" stroke="none" stroke-width="1" fill="none" fill-rule="evenodd">
        <g id="SDGs" transform="translate(-955.000000, -38.000000)" fill-rule="nonzero">
            <g id="TheGlobalGoals_Icons_Color_Goal_9" transform="translate(955.000000, 38.000000)">
                <rect id="_Path_" fill="#FD6925" x="0" y="0.0988023952" width="100" height="99.8023952"></rect>
                <path d="M18.315,13.5259481 C18.315,10.4101796 16.947,8.15668663 13.381,8.15668663 C9.781,8.15668663 8.387,10.1137725 8.387,13.2285429 L8.387,16.1956088 C8.387,19.489022 9.694,21.1497006 12.133,21.1497006 C13.56,21.1497006 14.421,20.496008 14.926,19.5189621 L14.955,19.5189621 L14.955,23.8522954 C14.955,25.0688623 14.48,25.9291417 13.262,25.9291417 C12.044,25.9291417 11.6,25.2135729 11.6,23.9670659 L11.6,22.6327345 L8.505,22.6327345 L8.505,23.7015968 C8.505,26.6666667 9.576,28.743513 13.322,28.743513 C16.887,28.743513 18.315,26.4590818 18.315,23.3143713 L18.315,13.5259481 Z M14.955,16.6107784 C14.896,17.737525 14.421,18.4491018 13.355,18.4491018 C12.197,18.4491018 11.755,17.737525 11.755,16.4321357 L11.755,12.9321357 C11.755,11.6566866 12.229,10.9151697 13.39,10.9151697 C14.519,10.9151697 14.964,11.6856287 14.964,12.9321357 L14.955,16.6107784 Z" id="_Compound_Path_" fill="#FFFFFF"></path>
                <path d="M74.988,65.6966068 L63.1,58.8493014 L63.1,45.1516966 C63.1005079,44.8644417 62.948234,44.5984942 62.7,44.4530938 L50.41,37.3672655 C50.1591311,37.2224773 49.8498689,37.2224773 49.599,37.3672655 L37.3,44.4510978 C37.051766,44.5964982 36.8994921,44.8624457 36.9,45.1497006 L36.9,58.8493014 L25.012,65.6966068 C24.7616079,65.8406431 24.6069399,66.1067798 24.606,66.3952096 L24.606,80.5668663 C24.6071445,80.8552408 24.7617576,81.1212829 25.012,81.2654691 L37.303,88.3512974 C37.5541434,88.495061 37.8628566,88.495061 38.114,88.3512974 L50,81.498004 L61.884,88.3453094 C62.1351434,88.489073 62.4438566,88.489073 62.695,88.3453094 L74.988,81.259481 C75.2382424,81.1152949 75.3928555,80.8492527 75.394,80.5608782 L75.394,66.3892216 C75.39134,66.1028241 75.2368478,65.8392683 74.988,65.6966068 Z M49.188,79.1616766 L39.33,73.4800399 L49.189,67.7994012 L49.188,79.1616766 Z M60.668,59.3173653 L50.81,64.99501 L50.81,53.6357285 L60.668,59.3173653 Z M49.189,64.996008 L39.331,59.3163673 L49.189,53.6357285 L49.189,64.996008 Z M51.622,66.3932136 L62.29,60.251497 L72.961,66.3972056 L62.29,72.5459082 L51.622,66.3932136 Z M61.479,57.9101796 L51.622,52.2285429 L61.479,46.5489022 L61.479,57.9101796 Z M48.379,52.2285429 L38.52,57.9101796 L38.52,46.5538922 L48.379,52.2285429 Z M36.9,86.242515 L26.23,80.0958084 L26.23,67.7994012 L36.9,73.9520958 L36.9,86.242515 Z M38.521,86.242515 L38.521,74.8822355 L48.38,80.5638723 L38.521,86.242515 Z M73.774,80.0958084 L63.1,86.242515 L63.1,73.9520958 L73.772,67.8033932 L73.774,80.0958084 Z" id="_Compound_Path_2" fill="#FFFFFF"></path>
                <g id="_Group_" transform="translate(23.600000, 8.483034)" fill="#FFFFFF">
                    <polygon id="_Compound_Path_3" points="0.007 0.137724551 1.317 0.137724551 1.317 7.92215569 0.007 7.92215569"></polygon>
                    <polygon id="_Compound_Path_4" points="3.007 3.02894212 3.007 7.91916168 1.9 7.91916168 1.9 0.134730539 3.187 0.134730539 4.601 4.59780439 4.601 0.137724551 5.7 0.137724551 5.7 7.92215569 4.548 7.92215569"></polygon>
                    <path d="M10.192,2.22654691 L10.192,5.82834331 C10.192,7.0259481 9.698,7.91716567 8.292,7.91716567 L6.272,7.91716567 L6.272,0.132734531 L8.3,0.132734531 C9.7,0.137724551 10.192,1.02195609 10.192,2.22654691 Z M8.134,6.8502994 C8.675,6.8502994 8.882,6.52894212 8.882,6.05788423 L8.882,1.98502994 C8.882,1.5259481 8.675,1.20558882 8.134,1.20558882 L7.583,1.20558882 L7.583,6.8502994 L8.134,6.8502994 Z" id="_Compound_Path_5"></path>
                    <path d="M14.572,0.137724551 L14.572,6.0259481 C14.572,7.23053892 14.055,8.01097804 12.721,8.01097804 C11.342,8.01097804 10.767,7.23053892 10.767,6.0259481 L10.767,0.137724551 L12.078,0.137724551 L12.078,6.1497006 C12.078,6.60878244 12.261,6.91916168 12.721,6.91916168 C13.181,6.91916168 13.365,6.60878244 13.365,6.1497006 L13.365,0.137724551 L14.572,0.137724551 Z" id="_Compound_Path_6"></path>
                    <path d="M15.078,6.24151697 L15.078,5.19760479 L16.3,5.19760479 L16.3,6.26447106 C16.3,6.7005988 16.495,6.95309381 16.943,6.95309381 C17.357,6.95309381 17.543,6.67764471 17.543,6.26447106 L17.543,5.96506986 C17.543,5.51796407 17.359,5.24251497 16.957,4.86726547 L16.187,4.09780439 C15.439,3.36427146 15.094,2.91616766 15.094,2.02195609 L15.094,1.75748503 C15.094,0.794411178 15.658,0.0479041916 16.934,0.0479041916 C18.244,0.0479041916 18.762,0.690618762 18.762,1.81536926 L18.762,2.44610778 L17.562,2.44610778 L17.562,1.76946108 C17.562,1.32135729 17.355,1.10379242 16.941,1.10379242 C16.573,1.10379242 16.321,1.31037924 16.321,1.74650699 L16.321,1.90718563 C16.321,2.34331337 16.562,2.59580838 16.941,2.96207585 L17.781,3.78842315 C18.493,4.51097804 18.838,4.94710579 18.838,5.80738523 L18.838,6.18762475 C18.838,7.25449102 18.263,8.01197605 16.93,8.01197605 C15.597,8.01197605 15.078,7.26247505 15.078,6.24151697 Z" id="_Compound_Path_7"></path>
                    <polygon id="_Compound_Path_8" points="18.918 0.137724551 22.4 0.137724551 22.4 1.20558882 21.32 1.20558882 21.32 7.91716567 20 7.91716567 20 1.20558882 18.92 1.20558882"></polygon>
                    <path d="M24.148,4.34830339 L24.148,7.91716567 L22.838,7.91716567 L22.838,0.132734531 L24.746,0.132734531 C26.068,0.132734531 26.551,0.78742515 26.551,1.87724551 L26.551,2.8752495 C26.551,3.71257485 26.251,4.20558882 25.505,4.37824351 L26.758,7.91217565 L25.378,7.91217565 L24.148,4.34830339 Z M24.148,1.20558882 L24.148,3.6257485 L24.585,3.6257485 C25.033,3.6257485 25.229,3.39620758 25.229,2.98303393 L25.229,1.83632735 C25.229,1.41117764 25.029,1.20558882 24.585,1.20558882 L24.148,1.20558882 Z" id="_Compound_Path_9"></path>
                    <polygon id="_Compound_Path_10" points="29.356 4.95708583 29.356 7.91716567 28.045 7.91716567 28.045 4.95708583 26.585 0.137724551 27.953 0.137724551 28.747 3.08682635 28.758 3.08682635 29.551 0.137724551 30.8 0.137724551"></polygon>
                    <polygon id="_Compound_Path_11" points="31.931 6.76946108 31.264 8.5249501 30.529 8.5249501 30.689 6.66666667 31.931 6.66666667"></polygon>
                    <polygon id="_Compound_Path_12" points="33.541 0.137724551 34.851 0.137724551 34.851 7.92215569 33.541 7.92215569"></polygon>
                    <polygon id="_Compound_Path_13" points="36.541 3.02894212 36.541 7.91916168 35.441 7.91916168 35.441 0.134730539 36.729 0.134730539 38.143 4.59780439 38.143 0.137724551 39.235 0.137724551 39.235 7.92215569 38.085 7.92215569"></polygon>
                    <polygon id="_Compound_Path_14" points="40.909 3.02894212 40.909 7.91916168 39.809 7.91916168 39.809 0.134730539 41.096 0.134730539 42.51 4.59780439 42.51 0.137724551 43.6 0.137724551 43.6 7.92215569 42.45 7.92215569"></polygon>
                    <path d="M44.174,5.90918164 L44.174,2.14570858 C44.174,0.930139721 44.774,0.0499001996 46.151,0.0499001996 C47.528,0.0499001996 48.14,0.934131737 48.14,2.14570858 L48.14,5.90918164 C48.14,7.11377246 47.54,8.00499002 46.151,8.00499002 C44.762,8.00499002 44.174,7.11377246 44.174,5.90918164 Z M46.83,6.11576846 L46.83,1.93912176 C46.83,1.46906188 46.623,1.14071856 46.151,1.14071856 C45.679,1.14071856 45.485,1.47305389 45.485,1.93912176 L45.485,6.11576846 C45.485,6.58582834 45.692,6.91916168 46.151,6.91916168 C46.61,6.91916168 46.83,6.58682635 46.83,6.11576846 Z" id="_Compound_Path_15"></path>
                    <polygon id="_Compound_Path_16" points="52.911 0.137724551 51.428 7.92215569 50 7.92215569 48.518 0.137724551 49.851 0.137724551 50.751 5.56487026 50.762 5.56487026 51.682 0.137724551"></polygon>
                    <path d="M52.5,7.91716567 L53.971,0.132734531 L55.471,0.132734531 L56.954,7.91716567 L55.6,7.91716567 L55.358,6.49401198 L53.968,6.49401198 L53.739,7.91716567 L52.5,7.91716567 Z M54.144,5.4500998 L55.19,5.4500998 L54.673,2.32934132 L54.661,2.32934132 L54.144,5.4500998 Z" id="_Compound_Path_17"></path>
                    <polygon id="_Compound_Path_18" points="56.59 0.137724551 60.073 0.137724551 60.073 1.20558882 58.992 1.20558882 58.992 7.91716567 57.67 7.91716567 57.67 1.20558882 56.59 1.20558882"></polygon>
                    <polygon id="_Compound_Path_19" points="60.51 0.137724551 61.82 0.137724551 61.82 7.92215569 60.51 7.92215569"></polygon>
                    <path d="M62.406,5.90918164 L62.406,2.14570858 C62.406,0.930139721 63.006,0.0499001996 64.384,0.0499001996 C65.762,0.0499001996 66.372,0.934131737 66.372,2.14570858 L66.372,5.90918164 C66.372,7.11377246 65.772,8.00499002 64.384,8.00499002 C62.996,8.00499002 62.406,7.11377246 62.406,5.90918164 Z M65.062,6.11576846 L65.062,1.93912176 C65.062,1.46906188 64.855,1.14071856 64.384,1.14071856 C63.913,1.14071856 63.717,1.47305389 63.717,1.93912176 L63.717,6.11576846 C63.717,6.58582834 63.924,6.91916168 64.384,6.91916168 C64.844,6.91916168 65.062,6.58682635 65.062,6.11576846 L65.062,6.11576846 Z" id="_Compound_Path_20"></path>
                    <polygon id="_Compound_Path_21" points="68.051 3.02894212 68.051 7.91916168 66.951 7.91916168 66.951 0.134730539 68.239 0.134730539 69.653 4.59780439 69.653 0.137724551 70.745 0.137724551 70.745 7.92215569 69.595 7.92215569"></polygon>
                </g>
                <g id="_Group_2" transform="translate(23.400000, 20.459082)" fill="#FFFFFF">
                    <path d="M0,7.92814371 L1.471,0.149700599 L2.96,0.149700599 L4.443,7.92814371 L3.1,7.92814371 L2.859,6.50598802 L1.466,6.50598802 L1.236,7.92814371 L0,7.92814371 Z M1.643,5.46207585 L2.69,5.46207585 L2.172,2.34131737 L2.161,2.34131737 L1.643,5.46207585 Z" id="_Compound_Path_22"></path>
                    <polygon id="_Compound_Path_23" points="6.03 3.04091816 6.03 7.93113772 4.93 7.93113772 4.93 0.149700599 6.218 0.149700599 7.632 4.61277445 7.632 0.149700599 8.72 0.149700599 8.72 7.92814371 7.57 7.92814371"></polygon>
                    <path d="M13.33,2.23752495 L13.33,5.84031936 C13.33,7.03792415 12.835,7.92814371 11.43,7.92814371 L9.41,7.92814371 L9.41,0.149700599 L11.433,0.149700599 C12.835,0.149700599 13.33,1.03293413 13.33,2.23752495 Z M11.272,6.86127745 C11.812,6.86127745 12.019,6.53992016 12.019,6.06986028 L12.019,1.99600798 C12.019,1.53692615 11.812,1.21556886 11.272,1.21556886 L10.72,1.21556886 L10.72,6.86027944 L11.272,6.86127745 Z" id="_Compound_Path_24"></path>
                    <polygon id="_Compound_Path_25" points="15.169 0.149700599 16.48 0.149700599 16.48 7.92814371 15.169 7.92814371"></polygon>
                    <polygon id="_Compound_Path_26" points="18.284 3.04091816 18.284 7.93113772 17.184 7.93113772 17.184 0.149700599 18.471 0.149700599 19.885 4.61277445 19.885 0.149700599 20.977 0.149700599 20.977 7.92814371 19.825 7.92814371"></polygon>
                    <polygon id="_Compound_Path_27" points="21.664 0.149700599 24.734 0.149700599 24.734 1.21656687 22.975 1.21656687 22.975 3.44311377 24.285 3.44311377 24.285 4.49800399 22.975 4.49800399 22.975 7.92814371 21.664 7.92814371"></polygon>
                    <path d="M26.561,4.36027944 L26.561,7.92814371 L25.251,7.92814371 L25.251,0.149700599 L27.159,0.149700599 C28.481,0.149700599 28.964,0.803393214 28.964,1.89421158 L28.964,2.89221557 C28.964,3.72954092 28.664,4.22255489 27.918,4.39520958 L29.171,7.92814371 L27.791,7.92814371 L26.561,4.36027944 Z M26.561,1.21656687 L26.561,3.63772455 L27,3.63772455 C27.448,3.63772455 27.644,3.40818363 27.644,2.99500998 L27.644,1.84830339 C27.644,1.42315369 27.444,1.21656687 27,1.21656687 L26.561,1.21656687 Z" id="_Compound_Path_28"></path>
                    <path d="M29.412,7.92814371 L30.884,0.149700599 L32.378,0.149700599 L33.861,7.92814371 L32.516,7.92814371 L32.275,6.50598802 L30.884,6.50598802 L30.654,7.92814371 L29.412,7.92814371 Z M31.056,5.46207585 L32.1,5.46207585 L31.583,2.34131737 L31.572,2.34131737 L31.056,5.46207585 Z" id="_Compound_Path_29"></path>
                    <path d="M34.16,6.25349301 L34.16,5.20958084 L35.379,5.20958084 L35.379,6.27644711 C35.379,6.71257485 35.579,6.96506986 36.022,6.96506986 C36.436,6.96506986 36.622,6.68962076 36.622,6.27644711 L36.622,5.97704591 C36.622,5.52994012 36.438,5.25449102 36.036,4.87924152 L35.266,4.10978044 C34.519,3.3762475 34.174,2.92814371 34.174,2.03293413 L34.174,1.76946108 C34.174,0.805389222 34.737,0.0598802395 36.013,0.0598802395 C37.323,0.0598802395 37.841,0.70259481 37.841,1.82734531 L37.841,2.45808383 L36.641,2.45808383 L36.641,1.78143713 C36.641,1.33333333 36.434,1.11576846 36.02,1.11576846 C35.652,1.11576846 35.4,1.32235529 35.4,1.75848303 L35.4,1.91916168 C35.4,2.35429142 35.641,2.60678643 36.02,2.9740519 L36.86,3.8003992 C37.572,4.52295409 37.917,4.95908184 37.917,5.81936128 L37.917,6.19860279 C37.917,7.26546906 37.342,8.02195609 36.009,8.02195609 C34.676,8.02195609 34.16,7.2744511 34.16,6.25349301 Z" id="_Compound_Path_30"></path>
                    <polygon id="_Compound_Path_31" points="38.23 0.149700599 41.713 0.149700599 41.713 1.21656687 40.632 1.21656687 40.632 7.92814371 39.31 7.92814371 39.31 1.21656687 38.23 1.21656687"></polygon>
                    <path d="M43.575,4.36027944 L43.575,7.92814371 L42.265,7.92814371 L42.265,0.149700599 L44.173,0.149700599 C45.495,0.149700599 45.973,0.803393214 45.973,1.89421158 L45.973,2.89221557 C45.973,3.72954092 45.673,4.22255489 44.927,4.39520958 L46.18,7.92814371 L44.8,7.92814371 L43.575,4.36027944 Z M43.575,1.21656687 L43.575,3.63772455 L44.012,3.63772455 C44.46,3.63772455 44.656,3.40818363 44.656,2.99500998 L44.656,1.84830339 C44.656,1.42315369 44.456,1.21656687 44.012,1.21656687 L43.575,1.21656687 Z" id="_Compound_Path_32"></path>
                    <path d="M50.438,0.149700599 L50.438,6.03792415 C50.438,7.24251497 49.921,8.02195609 48.587,8.02195609 C47.208,8.02195609 46.633,7.24251497 46.633,6.03792415 L46.633,0.149700599 L47.944,0.149700599 L47.944,6.16167665 C47.944,6.62075848 48.128,6.93013972 48.587,6.93013972 C49.046,6.93013972 49.231,6.62075848 49.231,6.16167665 L49.231,0.149700599 L50.438,0.149700599 Z" id="_Compound_Path_33"></path>
                    <path d="M51.128,5.92115768 L51.128,2.15768463 C51.128,0.941117764 51.703,0.0618762475 53.082,0.0618762475 C54.531,0.0618762475 54.933,0.860279441 54.933,2.01197605 L54.933,2.93013972 L53.733,2.93013972 L53.733,1.90518962 C53.733,1.42315369 53.572,1.14770459 53.1,1.14770459 C52.628,1.14770459 52.434,1.48103792 52.434,1.9510978 L52.434,6.12774451 C52.434,6.59780439 52.634,6.9261477 53.1,6.9261477 C53.566,6.9261477 53.733,6.62674651 53.733,6.16966068 L53.733,4.73952096 L54.933,4.73952096 L54.933,6.08183633 C54.933,7.19461078 54.473,8.01996008 53.082,8.01996008 C51.691,8.01996008 51.128,7.1257485 51.128,5.92115768 Z" id="_Compound_Path_34"></path>
                    <polygon id="_Compound_Path_35" points="55.152 0.149700599 58.635 0.149700599 58.635 1.21656687 57.554 1.21656687 57.554 7.92814371 56.232 7.92814371 56.232 1.21656687 55.152 1.21656687"></polygon>
                    <path d="M62.992,0.149700599 L62.992,6.03792415 C62.992,7.24251497 62.475,8.02195609 61.141,8.02195609 C59.761,8.02195609 59.187,7.24251497 59.187,6.03792415 L59.187,0.149700599 L60.5,0.149700599 L60.5,6.16167665 C60.5,6.62075848 60.684,6.93013972 61.144,6.93013972 C61.604,6.93013972 61.788,6.62075848 61.788,6.16167665 L61.788,0.149700599 L62.992,0.149700599 Z" id="_Compound_Path_36"></path>
                    <path d="M64.992,4.36027944 L64.992,7.92814371 L63.682,7.92814371 L63.682,0.149700599 L65.59,0.149700599 C66.912,0.149700599 67.395,0.803393214 67.395,1.89421158 L67.395,2.89221557 C67.395,3.72954092 67.095,4.22255489 66.349,4.39520958 L67.6,7.92814371 L66.22,7.92814371 L64.992,4.36027944 Z M64.992,1.21656687 L64.992,3.63772455 L65.429,3.63772455 C65.877,3.63772455 66.073,3.40818363 66.073,2.99500998 L66.073,1.84830339 C66.073,1.42315369 65.873,1.21656687 65.429,1.21656687 L64.992,1.21656687 Z" id="_Compound_Path_37"></path>
                    <polygon id="_Compound_Path_38" points="68.05 0.149700599 71.177 0.149700599 71.177 1.21656687 69.361 1.21656687 69.361 3.44311377 70.661 3.44311377 70.661 4.49800399 69.361 4.49800399 69.361 6.86127745 71.177 6.86127745 71.177 7.92814371 68.05 7.92814371"></polygon>
                </g>
            </g>
        </g>
    </g>
</svg>