<?xml version="1.0" encoding="UTF-8"?>
<svg width="100px" height="100px" viewBox="0 0 100 100" version="1.1" xmlns="http://www.w3.org/2000/svg" xmlns:xlink="http://www.w3.org/1999/xlink">
    <title>TheGlobalGoals_Icons_Color_Goal_17</title>
    <g id="Startup---Create-/-edit-startup-profile" stroke="none" stroke-width="1" fill="none" fill-rule="evenodd">
        <g id="SDGs" transform="translate(-491.000000, -154.000000)" fill-rule="nonzero">
            <g id="TheGlobalGoals_Icons_Color_Goal_17" transform="translate(491.000000, 154.000000)">
                <rect id="Rectangle" fill="#19486A" x="0" y="0" width="100" height="100"></rect>
                <path d="M31.911,8.368 L33.949,8.368 C35.335,8.368 35.841,9.055 35.841,10.202 L35.841,11.926 C35.841,13.073 35.335,13.772 33.949,13.772 L33.286,13.772 L33.286,16.546 L31.911,16.546 L31.911,8.368 Z M33.286,9.489 L33.286,12.71 L33.791,12.71 C34.262,12.71 34.465,12.481 34.465,12.034 L34.465,10.153 C34.465,9.708 34.265,9.489 33.791,9.489 L33.286,9.489 Z" id="Shape" fill="#FFFFFF"></path>
                <path d="M36.01,16.546 L37.554,8.368 L39.12,8.368 L40.674,16.546 L39.265,16.546 L39.012,15.046 L37.554,15.046 L37.312,16.546 L36.01,16.546 Z M37.735,13.952 L38.835,13.952 L38.292,10.671 L38.28,10.671 L37.735,13.952 Z" id="Shape" fill="#FFFFFF"></path>
                <path d="M42.738,12.8 L42.738,16.551 L41.364,16.551 L41.364,8.368 L43.364,8.368 C44.75,8.368 45.256,9.055 45.256,10.202 L45.256,11.251 C45.256,12.131 44.943,12.651 44.156,12.831 L45.47,16.546 L44.025,16.546 L42.738,12.8 Z M42.738,9.494 L42.738,12.039 L43.2,12.039 C43.671,12.039 43.876,11.798 43.876,11.364 L43.876,10.153 C43.876,9.708 43.676,9.489 43.2,9.489 L42.738,9.494 Z" id="Shape" fill="#FFFFFF"></path>
                <polygon id="Path" fill="#FFFFFF" points="45.746 8.368 49.399 8.368 49.399 9.489 48.265 9.489 48.265 16.546 46.879 16.546 46.879 9.489 45.746 9.489"></polygon>
                <polygon id="Path" fill="#FFFFFF" points="51.427 11.408 51.427 16.546 50.27 16.546 50.27 8.368 51.618 8.368 53.103 13.059 53.103 8.368 54.247 8.368 54.247 16.546 53.042 16.546"></polygon>
                <polygon id="Path" fill="#FFFFFF" points="55.376 8.368 58.654 8.368 58.654 9.489 56.751 9.489 56.751 11.829 58.113 11.829 58.113 12.94 56.751 12.94 56.751 15.424 58.654 15.424 58.654 16.546 55.376 16.546"></polygon>
                <path d="M60.885,12.8 L60.885,16.551 L59.511,16.551 L59.511,8.368 L61.511,8.368 C62.899,8.368 63.404,9.055 63.404,10.202 L63.404,11.251 C63.404,12.131 63.09,12.651 62.304,12.831 L63.618,16.546 L62.174,16.546 L60.885,12.8 Z M60.885,9.494 L60.885,12.039 L61.344,12.039 C61.814,12.039 62.019,11.798 62.019,11.364 L62.019,10.153 C62.019,9.708 61.814,9.489 61.344,9.489 L60.885,9.494 Z" id="Shape" fill="#FFFFFF"></path>
                <path d="M64.09,14.784 L64.09,13.684 L65.369,13.684 L65.369,14.805 C65.369,15.264 65.569,15.529 66.042,15.529 C66.477,15.529 66.669,15.239 66.669,14.805 L66.669,14.5 C66.669,14.029 66.477,13.739 66.053,13.341 L65.247,12.532 C64.463,11.762 64.102,11.29 64.102,10.351 L64.102,10.073 C64.102,9.059 64.693,8.273 66.03,8.273 C67.404,8.273 67.948,8.948 67.948,10.131 L67.948,10.794 L66.693,10.794 L66.693,10.083 C66.693,9.611 66.477,9.383 66.042,9.383 C65.656,9.383 65.392,9.601 65.392,10.059 L65.392,10.228 C65.392,10.687 65.646,10.951 66.042,11.337 L66.922,12.205 C67.67,12.965 68.03,13.423 68.03,14.328 L68.03,14.728 C68.03,15.851 67.43,16.645 66.03,16.645 C64.63,16.645 64.09,15.862 64.09,14.788" id="Path" fill="#FFFFFF"></path>
                <polygon id="Path" fill="#FFFFFF" points="71.577 12.94 70.252 12.94 70.252 16.546 68.876 16.546 68.876 8.368 70.252 8.368 70.252 11.831 71.577 11.831 71.577 8.368 72.962 8.368 72.962 16.546 71.577 16.546"></polygon>
                <rect id="Rectangle" fill="#FFFFFF" x="73.868" y="8.368" width="1.374" height="8.177"></rect>
                <path d="M76.158,8.368 L78.2,8.368 C79.587,8.368 80.093,9.055 80.093,10.202 L80.093,11.926 C80.093,13.073 79.587,13.772 78.2,13.772 L77.538,13.772 L77.538,16.546 L76.158,16.546 L76.158,8.368 Z M77.533,9.489 L77.533,12.71 L78.033,12.71 C78.504,12.71 78.709,12.481 78.709,12.034 L78.709,10.153 C78.709,9.708 78.509,9.489 78.033,9.489 L77.533,9.489 Z" id="Shape" fill="#FFFFFF"></path>
                <path d="M80.625,14.784 L80.625,13.684 L81.9,13.684 L81.9,14.805 C81.9,15.264 82.105,15.529 82.576,15.529 C83.009,15.529 83.203,15.239 83.203,14.805 L83.203,14.5 C83.203,14.029 83.009,13.739 82.588,13.341 L81.78,12.532 C80.997,11.762 80.635,11.29 80.635,10.351 L80.635,10.073 C80.635,9.059 81.227,8.273 82.563,8.273 C83.938,8.273 84.479,8.948 84.479,10.131 L84.479,10.794 L83.229,10.794 L83.229,10.083 C83.229,9.611 83.011,9.383 82.578,9.383 C82.192,9.383 81.928,9.601 81.928,10.059 L81.928,10.228 C81.928,10.687 82.179,10.951 82.578,11.337 L83.458,12.205 C84.205,12.965 84.566,13.423 84.566,14.328 L84.566,14.728 C84.566,15.851 83.966,16.645 82.566,16.645 C81.166,16.645 80.626,15.862 80.626,14.788" id="Path" fill="#FFFFFF"></path>
                <polygon id="Path" fill="#FFFFFF" points="14.963 8.381 14.963 28.542 11.573 28.542 11.573 13.109 11.543 13.109 9.164 15.577 9.135 15.577 9.135 12.038 12.258 8.381"></polygon>
                <polygon id="Path" fill="#FFFFFF" points="16.51 8.381 25.016 8.381 25.016 11.503 20.584 28.542 17.222 28.542 21.743 11.146 16.51 11.146"></polygon>
                <polygon id="Path" fill="#FFFFFF" points="31.913 20.246 35.183 20.246 35.183 21.384 33.309 21.384 33.309 23.76 34.705 23.76 34.705 24.885 33.309 24.885 33.309 28.546 31.913 28.546"></polygon>
                <path d="M35.672,26.4 L35.672,22.388 C35.672,21.088 36.308,20.148 37.772,20.148 C39.236,20.148 39.9,21.091 39.9,22.388 L39.9,26.4 C39.9,27.685 39.264,28.64 37.782,28.64 C36.3,28.64 35.682,27.685 35.682,26.4 M38.509,26.62 L38.509,22.168 C38.509,21.668 38.289,21.311 37.787,21.311 C37.285,21.311 37.078,21.666 37.078,22.168 L37.078,26.624 C37.078,27.124 37.297,27.481 37.787,27.481 C38.277,27.481 38.509,27.126 38.509,26.624" id="Shape" fill="#FFFFFF"></path>
                <path d="M42.2,24.739 L42.2,28.546 L40.8,28.546 L40.8,20.246 L42.832,20.246 C44.24,20.246 44.755,20.946 44.755,22.107 L44.755,23.172 C44.755,24.065 44.436,24.592 43.641,24.772 L44.974,28.543 L43.507,28.543 L42.2,24.739 Z M42.2,21.384 L42.2,23.968 L42.665,23.968 C43.142,23.968 43.351,23.723 43.351,23.282 L43.351,22.057 C43.351,21.604 43.142,21.384 42.665,21.384 L42.2,21.384 Z" id="Shape" fill="#FFFFFF"></path>
                <polygon id="Path" fill="#FFFFFF" points="46.963 20.246 50.672 20.246 50.672 21.384 49.522 21.384 49.522 28.546 48.114 28.546 48.114 21.384 46.963 21.384"></polygon>
                <polygon id="Path" fill="#FFFFFF" points="54.063 24.885 52.716 24.885 52.716 28.546 51.321 28.546 51.321 20.246 52.716 20.246 52.716 23.76 54.063 23.76 54.063 20.246 55.471 20.246 55.471 28.546 54.063 28.546"></polygon>
                <polygon id="Path" fill="#FFFFFF" points="56.379 20.246 59.709 20.246 59.709 21.384 57.775 21.384 57.775 23.76 59.158 23.76 59.158 24.885 57.775 24.885 57.775 27.408 59.709 27.408 59.709 28.546 56.379 28.546"></polygon>
                <path d="M64.168,24.114 L66.151,24.114 L66.151,28.546 L65.151,28.546 L65.151,27.64 C64.968,28.265 64.576,28.64 63.817,28.64 C62.617,28.64 62.066,27.685 62.066,26.4 L62.066,22.388 C62.066,21.088 62.69,20.148 64.16,20.148 C65.702,20.148 66.16,21.005 66.16,22.229 L66.16,22.963 L64.878,22.963 L64.878,22.119 C64.878,21.605 64.678,21.311 64.178,21.311 C63.678,21.311 63.456,21.666 63.456,22.168 L63.456,26.624 C63.456,27.124 63.663,27.481 64.142,27.481 C64.594,27.481 64.827,27.223 64.827,26.681 L64.827,25.216 L64.166,25.216 L64.168,24.114 Z" id="Path" fill="#FFFFFF"></path>
                <path d="M66.947,26.4 L66.947,22.388 C66.947,21.088 67.583,20.148 69.047,20.148 C70.511,20.148 71.166,21.091 71.166,22.388 L71.166,26.4 C71.166,27.685 70.529,28.64 69.047,28.64 C67.565,28.64 66.947,27.685 66.947,26.4 M69.775,26.62 L69.775,22.168 C69.775,21.668 69.554,21.311 69.052,21.311 C68.55,21.311 68.343,21.666 68.343,22.168 L68.343,26.624 C68.343,27.124 68.563,27.481 69.052,27.481 C69.541,27.481 69.775,27.126 69.775,26.624" id="Shape" fill="#FFFFFF"></path>
                <path d="M71.562,28.546 L73.129,20.246 L74.721,20.246 L76.3,28.546 L74.867,28.546 L74.611,27.027 L73.129,27.027 L72.885,28.546 L71.562,28.546 Z M73.312,25.914 L74.427,25.914 L73.875,22.584 L73.864,22.584 L73.312,25.914 Z" id="Shape" fill="#FFFFFF"></path>
                <polygon id="Path" fill="#FFFFFF" points="77.099 20.246 78.495 20.246 78.495 27.408 80.159 27.408 80.159 28.546 77.099 28.546"></polygon>
                <path d="M80.66,26.759 L80.66,25.645 L81.96,25.645 L81.96,26.783 C81.96,27.248 82.169,27.518 82.645,27.518 C83.087,27.518 83.283,27.223 83.283,26.783 L83.283,26.465 C83.283,25.987 83.083,25.694 82.658,25.289 L81.839,24.47 C81.039,23.686 80.676,23.209 80.676,22.253 L80.676,21.972 C80.676,20.944 81.276,20.148 82.634,20.148 C84.034,20.148 84.581,20.833 84.581,22.033 L84.581,22.706 L83.305,22.706 L83.305,21.985 C83.305,21.507 83.084,21.274 82.642,21.274 C82.251,21.274 81.982,21.495 81.982,21.96 L81.982,22.131 C81.982,22.596 82.24,22.866 82.642,23.258 L83.536,24.139 C84.296,24.91 84.664,25.375 84.664,26.293 L84.664,26.693 C84.664,27.832 84.051,28.64 82.631,28.64 C81.211,28.64 80.66,27.84 80.66,26.755" id="Path" fill="#FFFFFF"></path>
                <path d="M74.826,60.648 C74.826,53.625 69.239,47.888 62.279,47.634 C60.4412719,42.4273453 55.5199579,38.9454952 49.9985,38.9454952 C44.4770421,38.9454952 39.5557281,42.4273453 37.718,47.634 C30.759,47.888 25.174,53.626 25.174,60.648 C25.174,64.6624704 27.0294341,68.4515856 30.2,70.914 C29.8598795,72.0892518 29.6868493,73.3065222 29.686,74.53 C29.686,81.708 35.529,87.551006 42.712,87.551006 C45.3364592,87.5535181 47.899715,86.7583857 50.062,85.271 C52.1992545,86.7038796 54.7148708,87.4676856 57.288,87.465 C64.47,87.465 70.313,81.622 70.313,74.443 C70.312815,73.2449178 70.1469095,72.0526192 69.82,70.9 C72.9779388,68.4359828 74.8246024,64.6544908 74.826,60.649 M60.4,51.97 C60.4,57.184 56.541,61.5 51.532,62.246 C51.4449937,61.7170315 51.3995216,61.1820647 51.396,60.646 C51.4037739,55.4988697 55.173392,51.1307375 60.264,50.37 C60.3505921,50.89902 60.3960615,51.4339545 60.4,51.97 M50.047,81.893 C48.0429838,79.9554788 46.9031006,77.2929286 46.8842883,74.5055077 C46.865476,71.7180868 47.9693179,69.0403937 49.947,67.076 C51.9517722,69.0131073 53.0921845,71.6758068 53.1109986,74.4634836 C53.1298126,77.2511604 52.0254436,79.92901 50.047,81.893 M39.733,50.371 C44.742,51.116 48.6,55.433 48.6,60.648 C48.5961479,61.1840909 48.5503413,61.7190579 48.463,62.248 C43.456,61.5 39.6,57.184 39.6,51.97 C39.6040305,51.4339587 39.6494993,50.8990313 39.736,50.37 M47.489,65.3 C46.2501227,67.7914132 44.0614059,69.6799717 41.415429,70.5406477 C38.7694522,71.4013237 35.8885208,71.1618063 33.421,69.876 C34.6598773,67.3845868 36.8485941,65.4960283 39.494571,64.6353523 C42.1405478,63.7746763 45.0214792,64.0141937 47.489,65.3 M52.476,65.23 C54.9570983,63.92677 57.8601314,63.6835773 60.5234755,64.5558475 C63.1868196,65.4281177 65.3835446,67.3415289 66.613,69.86 C64.1319017,71.16323 61.2288686,71.4064227 58.5655245,70.5341525 C55.9021804,69.6618823 53.7054554,67.7484711 52.476,65.23 M50,41.569 C54.1387647,41.5735225 57.8819599,44.0286816 59.535,47.823 C55.3568778,48.5698893 51.8015302,51.2989494 50,55.142 C48.1998197,51.2978642 44.6438217,48.5683047 40.465,47.823 C42.1182476,44.0288565 45.8613131,41.5737824 50,41.569 M27.8,60.648 C27.8068978,55.3373687 31.8077017,50.8820749 37.087,50.306 C36.5334759,54.5197961 38.081629,58.7371399 41.23,61.592 C36.9955599,62.0810962 33.2669285,64.6075454 31.243,68.359 C29.0531348,66.3936797 27.8014771,63.5904465 27.8,60.648 M32.3089907,74.53 C32.3089907,73.805365 32.3850026,73.0827283 32.536,72.374 C36.3367359,74.2122612 40.7934622,74.0903277 44.488,72.047 C43.7046532,76.1999342 44.9947538,80.4740222 47.945,83.5 C44.732173,85.3844051 40.7561233,85.4035182 37.5253281,83.5500882 C34.294533,81.6966582 32.3040308,78.2546765 32.3089907,74.53 M67.6910112,74.443 C67.6964265,78.1465488 65.7291047,81.57271 62.5277837,83.4349258 C59.3264628,85.2971415 55.3756823,85.3135539 52.159,83.478 C55.0607112,80.4311069 56.3036811,76.1657143 55.493,72.037 C59.1964031,74.0937327 63.6699747,74.2157697 67.48,72.364 C67.6203658,73.0480956 67.6910112,73.7446525 67.6910112,74.443 M58.849,61.515 C61.5114626,59.0552017 63.0250401,55.5948192 63.024,51.97 C63.0226118,51.4135959 62.9862065,50.8578307 62.915,50.306 C66.9871798,50.7376482 70.4253047,53.5224505 71.6932664,57.4161944 C72.961228,61.3099383 71.8221668,65.585259 68.785,68.332 C66.7831148,64.5750884 63.0746303,62.0307306 58.849,61.515" id="Shape" fill="#FFFFFF"></path>
            </g>
        </g>
    </g>
</svg>